<?xml version="1.0" standalone="no"?>
<!DOCTYPE svg PUBLIC "-//W3C//DTD SVG 20010904//EN"
 "http://www.w3.org/TR/2001/REC-SVG-20010904/DTD/svg10.dtd">
<svg version="1.0" xmlns="http://www.w3.org/2000/svg"
 width="700.000000pt" height="700.000000pt" viewBox="0 0 700.000000 700.000000"
 preserveAspectRatio="xMidYMid meet">
<metadata>
Created by potrace 1.14, written by Peter Selinger 2001-2017
</metadata>
<g transform="translate(0.000000,700.000000) scale(0.100000,-0.100000)"
fill="#000000" stroke="none">
<path d="M5226 6255 c-32 -8 -189 -51 -350 -96 -160 -44 -435 -120 -611 -169
-176 -49 -1077 -298 -2003 -555 -1184 -327 -1702 -475 -1745 -497 -84 -42
-194 -153 -235 -238 -34 -69 -62 -179 -62 -245 0 -175 103 -361 255 -461 30
-20 634 -262 1535 -616 l1485 -583 100 0 c88 0 107 3 158 27 33 16 77 48 102
75 75 80 1955 2523 1980 2573 57 112 76 281 46 390 -50 174 -180 316 -347 377
-88 31 -222 39 -308 18z"/>
<path d="M5119 3928 c-519 -673 -970 -1251 -1002 -1285 -190 -200 -479 -271
-743 -185 -75 25 -766 294 -2623 1023 -167 66 -306 118 -308 116 -2 -2 141
-526 317 -1163 370 -1338 353 -1288 499 -1434 97 -96 179 -148 296 -187 70
-23 97 -27 215 -27 l135 -1 460 128 c253 71 645 180 870 242 226 63 770 213
1210 335 1617 448 1801 499 1850 521 185 81 332 243 402 444 25 72 27 93 27
220 l1 140 -325 1168 c-178 642 -328 1167 -331 1167 -4 0 -432 -550 -950
-1222z"/>
</g>
</svg>
